<svg width="388" height="102" viewBox="0 0 388 102" fill="none" xmlns="http://www.w3.org/2000/svg">
<path d="M38.308 54.272C36.5627 54.272 35.0893 54.1587 33.888 53.932C32.6867 53.7053 31.6893 53.3313 30.896 52.81C30.1027 52.266 29.4793 51.5407 29.026 50.634C28.5953 49.7047 28.2893 48.56 28.108 47.2C27.9493 45.84 27.87 44.208 27.87 42.304C27.87 40.4 27.9493 38.768 28.108 37.408C28.2893 36.048 28.6067 34.9147 29.06 34.008C29.5133 33.0787 30.1367 32.3533 30.93 31.832C31.7233 31.288 32.7207 30.9027 33.922 30.676C35.1233 30.4493 36.5853 30.336 38.308 30.336C39.0787 30.336 39.94 30.37 40.892 30.438C41.844 30.506 42.7847 30.5967 43.714 30.71C44.666 30.8233 45.55 30.9593 46.366 31.118V35.368C45.5953 35.2547 44.8247 35.1753 44.054 35.13C43.306 35.062 42.6147 35.0053 41.98 34.96C41.3453 34.9147 40.824 34.892 40.416 34.892C39.192 34.892 38.1833 34.9147 37.39 34.96C36.5967 35.0053 35.9507 35.1527 35.452 35.402C34.9533 35.6287 34.5793 36.0027 34.33 36.524C34.0807 37.0453 33.9107 37.782 33.82 38.734C33.752 39.6633 33.718 40.8533 33.718 42.304C33.718 43.596 33.7407 44.684 33.786 45.568C33.854 46.452 33.9787 47.1773 34.16 47.744C34.364 48.3107 34.636 48.7527 34.976 49.07C35.3387 49.3647 35.8033 49.5687 36.37 49.682C36.9593 49.7953 37.6733 49.852 38.512 49.852C38.784 49.852 39.0787 49.852 39.396 49.852C39.7133 49.8293 40.0193 49.8067 40.314 49.784C40.6087 49.7613 40.858 49.75 41.062 49.75V44.684H37.73V40.434H46.468V53.524C45.652 53.6827 44.7567 53.8187 43.782 53.932C42.8073 54.0227 41.844 54.102 40.892 54.17C39.94 54.238 39.0787 54.272 38.308 54.272ZM58.8777 54.272C57.2457 54.272 55.8971 54.17 54.8317 53.966C53.7664 53.762 52.9164 53.4447 52.2817 53.014C51.6697 52.5607 51.2051 51.9827 50.8877 51.28C50.5931 50.5773 50.4004 49.7387 50.3097 48.764C50.2417 47.7893 50.2077 46.656 50.2077 45.364C50.2077 43.8 50.2757 42.4513 50.4117 41.318C50.5704 40.1847 50.9104 39.2553 51.4317 38.53C51.9531 37.8047 52.7577 37.272 53.8457 36.932C54.9564 36.5693 56.4524 36.388 58.3337 36.388C59.8524 36.388 61.0877 36.5013 62.0397 36.728C62.9917 36.932 63.7397 37.2607 64.2837 37.714C64.8504 38.1447 65.2471 38.7113 65.4737 39.414C65.7231 40.1167 65.8817 40.9667 65.9497 41.964C66.0177 42.9387 66.0517 44.072 66.0517 45.364V46.69H55.6137C55.6137 47.4607 55.6477 48.084 55.7157 48.56C55.7837 49.0133 55.9651 49.3533 56.2597 49.58C56.5544 49.8067 57.0077 49.9653 57.6197 50.056C58.2317 50.124 59.0817 50.158 60.1697 50.158C60.6004 50.158 61.1104 50.1467 61.6997 50.124C62.2891 50.1013 62.9011 50.0673 63.5357 50.022C64.1931 49.9767 64.8051 49.9313 65.3717 49.886V53.694C64.8731 53.8073 64.2611 53.9093 63.5357 54C62.8331 54.0907 62.0737 54.1587 61.2577 54.204C60.4417 54.2493 59.6484 54.272 58.8777 54.272ZM60.9177 44.412V43.868C60.9177 43.052 60.8724 42.406 60.7817 41.93C60.7137 41.454 60.5777 41.1027 60.3737 40.876C60.1924 40.6267 59.9317 40.468 59.5917 40.4C59.2517 40.332 58.8211 40.298 58.2997 40.298C57.7104 40.298 57.2344 40.3433 56.8717 40.434C56.5317 40.502 56.2711 40.6607 56.0897 40.91C55.9084 41.1593 55.7837 41.522 55.7157 41.998C55.6477 42.474 55.6137 43.0973 55.6137 43.868H61.4957L60.9177 44.412ZM71.4455 54V40.808H68.2835V36.66H71.4455V31.628H76.9535V36.66H80.7275V40.808H76.9535V54H71.4455ZM92.0888 33.124V28.738H97.6988V33.124H92.0888ZM92.1568 54V36.66H97.6648V54H92.1568ZM101.885 54V36.66H107.053L107.189 38.768H107.495C107.835 38.1787 108.255 37.714 108.753 37.374C109.252 37.0113 109.819 36.762 110.453 36.626C111.088 36.4673 111.779 36.388 112.527 36.388C113.683 36.388 114.601 36.5353 115.281 36.83C115.984 37.1247 116.517 37.5553 116.879 38.122C117.242 38.6887 117.48 39.3913 117.593 40.23C117.729 41.0687 117.797 42.0433 117.797 43.154V54H112.323V44.82C112.323 43.8907 112.301 43.1653 112.255 42.644C112.21 42.1 112.108 41.7033 111.949 41.454C111.791 41.2047 111.541 41.0573 111.201 41.012C110.884 40.944 110.453 40.91 109.909 40.91C109.343 40.91 108.878 40.978 108.515 41.114C108.175 41.2273 107.915 41.4313 107.733 41.726C107.575 42.0207 107.461 42.44 107.393 42.984C107.348 43.5053 107.325 44.1627 107.325 44.956V54H101.885ZM132.307 54V40.808H129.145V36.66H132.307V31.628H137.815V36.66H141.589V40.808H137.815V54H132.307ZM151.869 54.272C150.327 54.272 149.047 54.1813 148.027 54C147.007 53.8187 146.202 53.524 145.613 53.116C145.023 52.708 144.593 52.164 144.321 51.484C144.049 50.804 143.867 49.954 143.777 48.934C143.709 47.914 143.675 46.7013 143.675 45.296C143.675 43.8907 143.709 42.6893 143.777 41.692C143.867 40.672 144.049 39.822 144.321 39.142C144.593 38.462 145.023 37.918 145.613 37.51C146.202 37.102 147.007 36.8187 148.027 36.66C149.047 36.4787 150.327 36.388 151.869 36.388C153.433 36.388 154.725 36.4787 155.745 36.66C156.765 36.8187 157.569 37.102 158.159 37.51C158.748 37.918 159.179 38.462 159.451 39.142C159.723 39.822 159.893 40.672 159.961 41.692C160.051 42.6893 160.097 43.8907 160.097 45.296C160.097 46.7013 160.051 47.914 159.961 48.934C159.893 49.954 159.723 50.804 159.451 51.484C159.179 52.164 158.748 52.708 158.159 53.116C157.569 53.524 156.765 53.8187 155.745 54C154.725 54.1813 153.433 54.272 151.869 54.272ZM151.869 50.124C152.549 50.124 153.081 50.0787 153.467 49.988C153.852 49.8973 154.124 49.6933 154.283 49.376C154.441 49.0587 154.532 48.5713 154.555 47.914C154.6 47.2567 154.623 46.384 154.623 45.296C154.623 44.208 154.6 43.3467 154.555 42.712C154.532 42.0773 154.441 41.6013 154.283 41.284C154.124 40.9667 153.852 40.7627 153.467 40.672C153.081 40.5813 152.549 40.536 151.869 40.536C151.189 40.536 150.656 40.5813 150.271 40.672C149.908 40.7627 149.647 40.9667 149.489 41.284C149.33 41.6013 149.228 42.0773 149.183 42.712C149.16 43.3467 149.149 44.208 149.149 45.296C149.149 46.384 149.16 47.2567 149.183 47.914C149.228 48.5713 149.33 49.0587 149.489 49.376C149.647 49.6933 149.908 49.8973 150.271 49.988C150.656 50.0787 151.189 50.124 151.869 50.124ZM169.013 54.272C167.857 54.272 166.927 54.1247 166.225 53.83C165.522 53.5353 164.989 53.1047 164.627 52.538C164.264 51.9713 164.026 51.2687 163.913 50.43C163.799 49.5913 163.743 48.6167 163.743 47.506V36.66H169.183V45.84C169.183 46.7693 169.205 47.506 169.251 48.05C169.319 48.5713 169.432 48.9567 169.591 49.206C169.749 49.4553 169.987 49.614 170.305 49.682C170.622 49.7273 171.053 49.75 171.597 49.75C172.186 49.75 172.651 49.6933 172.991 49.58C173.353 49.444 173.614 49.2287 173.773 48.934C173.931 48.6393 174.033 48.2313 174.079 47.71C174.147 47.166 174.181 46.4973 174.181 45.704V36.66H179.655V54H174.453L174.317 51.892H174.011C173.693 52.4813 173.285 52.9573 172.787 53.32C172.288 53.66 171.721 53.898 171.087 54.034C170.452 54.1927 169.761 54.272 169.013 54.272ZM190.801 54.272C189.35 54.272 188.16 54.1473 187.231 53.898C186.301 53.626 185.565 53.252 185.021 52.776C184.477 52.2773 184.08 51.6653 183.831 50.94C183.581 50.2147 183.423 49.3873 183.355 48.458C183.287 47.506 183.253 46.4633 183.253 45.33C183.253 44.2193 183.287 43.1993 183.355 42.27C183.423 41.3407 183.593 40.5133 183.865 39.788C184.137 39.04 184.533 38.4167 185.055 37.918C185.599 37.4193 186.324 37.0453 187.231 36.796C188.16 36.524 189.339 36.388 190.767 36.388C191.673 36.388 192.58 36.4333 193.487 36.524C194.416 36.6147 195.243 36.7507 195.969 36.932V40.774C195.515 40.706 194.926 40.6493 194.201 40.604C193.498 40.5587 192.841 40.536 192.229 40.536C191.435 40.536 190.812 40.604 190.359 40.74C189.905 40.8533 189.565 41.08 189.339 41.42C189.112 41.7373 188.953 42.2133 188.863 42.848C188.795 43.4827 188.761 44.31 188.761 45.33C188.761 46.35 188.795 47.1887 188.863 47.846C188.953 48.4807 189.112 48.968 189.339 49.308C189.565 49.6253 189.917 49.8407 190.393 49.954C190.869 50.0673 191.492 50.124 192.263 50.124C192.807 50.124 193.419 50.1013 194.099 50.056C194.801 50.0107 195.47 49.954 196.105 49.886V53.728C195.357 53.8867 194.507 54.0113 193.555 54.102C192.603 54.2153 191.685 54.272 190.801 54.272ZM199.569 54V28.738H205.009V38.666H205.315C205.655 38.0993 206.063 37.6573 206.539 37.34C207.038 37 207.593 36.762 208.205 36.626C208.817 36.49 209.486 36.422 210.211 36.422C211.367 36.422 212.285 36.5693 212.965 36.864C213.668 37.136 214.2 37.5553 214.563 38.122C214.926 38.6887 215.164 39.3913 215.277 40.23C215.413 41.0687 215.481 42.0433 215.481 43.154V54H210.007V44.82C210.007 43.8907 209.984 43.1653 209.939 42.644C209.894 42.1 209.792 41.7033 209.633 41.454C209.474 41.2047 209.225 41.0573 208.885 41.012C208.568 40.944 208.137 40.91 207.593 40.91C207.026 40.91 206.562 40.978 206.199 41.114C205.859 41.2273 205.598 41.4313 205.417 41.726C205.258 42.0207 205.145 42.44 205.077 42.984C205.032 43.5053 205.009 44.1627 205.009 44.956V54H199.569Z" fill="white"/>
<line x1="120" y1="3" y2="3" stroke="#80FFDB" stroke-width="6"/>
<line x1="3.5" x2="3.5" y2="84" stroke="#80FFDB" stroke-width="7"/>
<path d="M316 81L281 60.7927V101.207L316 81ZM0 84.5H284.5V77.5H0V84.5Z" fill="#80FFDB"/>
</svg>
