<svg width="925" height="886" viewBox="0 0 925 886" fill="none" xmlns="http://www.w3.org/2000/svg">
<path d="M793.254 331.574C745.111 142.286 578.761 5.64727 383.501 0.166801C280.274 -2.73058 171.649 31.5013 92.5628 151.291C-48.8129 365.428 101.251 513.404 205.871 583.719C256.415 617.758 301.959 658.687 341.182 705.321C411.849 789.169 547.798 893.362 709.706 730.107C827.058 611.78 825.322 457.658 793.254 331.574Z" fill="#F2F2F2" fill-opacity="0.09"/>
<path d="M923.928 753.108C923.928 799.571 721.147 886 465.716 886C210.284 886 0 804.93 0 758.466C0 712.003 210.284 717.741 465.716 717.741C721.147 717.741 923.928 706.644 923.928 753.108Z" fill="#590026" fill-opacity="0.79"/>
<path opacity="0.1" d="M923.928 753.108C923.928 799.571 721.147 886 465.716 886C210.284 886 0 804.93 0 758.466C0 712.003 210.284 717.741 465.716 717.741C721.147 717.741 923.928 706.644 923.928 753.108Z" fill="#FF006D"/>
<path d="M462.5 842.06C717.932 842.06 925 804.394 925 757.93C925 711.467 717.932 673.801 462.5 673.801C207.068 673.801 0 711.467 0 757.93C0 804.394 207.068 842.06 462.5 842.06Z" fill="#FF006D" fill-opacity="0.79"/>
<path d="M637.595 471.809V696.808L675.235 758.143L678.1 762.809H826.618L829.618 471.809H637.595Z" fill="#2F2E41"/>
<path opacity="0.1" d="M637.595 471.809V696.808L675.235 758.143L677.545 471.809H637.595Z" fill="black"/>
<path d="M279.052 465.808V690.808L241.412 752.143L238.547 756.808H90.0283L87.0282 465.808H279.052Z" fill="#2F2E41"/>
<path opacity="0.1" d="M279.052 465.808V690.808L241.412 752.143L239.101 465.808H279.052Z" fill="black"/>
<path d="M874.623 461.308V474.808H67.5261V455.308L142.535 416.309H808.615L874.623 461.308Z" fill="#2F2E41"/>
<path opacity="0.1" d="M874.623 461.308V474.808H67.5261V455.309L874.623 461.308Z" fill="black"/>
<path opacity="0.1" d="M183.04 528.809H147.035L132.034 518.308H199.542L183.04 528.809Z" fill="black"/>
<path opacity="0.1" d="M183.04 572.308H147.035L132.034 561.808H199.542L183.04 572.308Z" fill="black"/>
<path opacity="0.1" d="M183.04 633.809H147.035L132.034 623.308H199.542L183.04 633.809Z" fill="black"/>
<path opacity="0.1" d="M183.04 695.308H147.035L132.034 684.808H199.542L183.04 695.308Z" fill="black"/>
<path opacity="0.1" d="M733.606 534.808H769.611L784.612 524.309H717.104L733.606 534.808Z" fill="black"/>
<path opacity="0.1" d="M733.606 578.308H769.611L784.612 567.808H717.104L733.606 578.308Z" fill="black"/>
<path opacity="0.1" d="M733.606 639.808H769.611L784.612 629.309H717.104L733.606 639.808Z" fill="black"/>
<path opacity="0.1" d="M733.606 701.308H769.611L784.612 690.808H717.104L733.606 701.308Z" fill="black"/>
<path d="M570.773 378.772L565.769 410.717C565.769 410.717 541.133 423.803 558.455 424.188C575.777 424.572 657.381 424.188 657.381 424.188C657.381 424.188 673.163 424.188 648.143 410.332L643.139 376.847L570.773 378.772Z" fill="#3F3D56"/>
<path opacity="0.1" d="M554.971 423.841C558.335 421.121 561.951 418.728 565.769 416.694L570.773 384.749L643.139 384.817L648.143 416.309C652.255 418.431 656.131 420.981 659.707 423.917C662.92 423.184 666.432 420.46 648.143 410.332L643.139 376.847L570.773 378.772L565.769 410.717C565.769 410.717 545.068 421.714 554.971 423.841Z" fill="black"/>
<path d="M758.125 156.118H455.018C448.687 156.118 443.554 161.25 443.554 167.58V371.736C443.554 378.066 448.687 383.198 455.018 383.198H758.125C764.456 383.198 769.588 378.066 769.588 371.736V167.58C769.588 161.25 764.456 156.118 758.125 156.118Z" fill="#3F3D56"/>
<path d="M758.617 168.242H454.525V338.359H758.617V168.242Z" fill="#F2F2F2"/>
<path d="M606.571 164.778C607.634 164.778 608.496 163.917 608.496 162.854C608.496 161.791 607.634 160.929 606.571 160.929C605.508 160.929 604.646 161.791 604.646 162.854C604.646 163.917 605.508 164.778 606.571 164.778Z" fill="#F2F2F2"/>
<path d="M769.588 351.83V371.736C769.588 373.241 769.292 374.732 768.716 376.123C768.14 377.513 767.295 378.777 766.231 379.841C765.166 380.906 763.903 381.75 762.512 382.326C761.121 382.902 759.63 383.198 758.125 383.198H455.018C453.512 383.198 452.021 382.902 450.631 382.326C449.24 381.75 447.976 380.906 446.912 379.841C445.847 378.777 445.003 377.513 444.427 376.123C443.851 374.732 443.554 373.241 443.554 371.736V351.83H769.588Z" fill="#3F3D56"/>
<path d="M606.571 374.923C610.61 374.923 613.885 371.649 613.885 367.61C613.885 363.571 610.61 360.297 606.571 360.297C602.532 360.297 599.258 363.571 599.258 367.61C599.258 371.649 602.532 374.923 606.571 374.923Z" fill="#F2F2F2"/>
<path d="M595.174 444.971V448.82H388.083V445.741L388.368 444.971L393.472 431.116H590.94L595.174 444.971Z" fill="#3F3D56"/>
<path d="M674.869 441.203C674.492 442.816 673.068 444.517 669.85 446.126C658.302 451.899 634.822 444.586 634.822 444.586C634.822 444.586 616.73 441.507 616.73 433.425C617.238 433.077 617.768 432.762 618.316 432.482C623.171 429.914 639.269 423.576 667.812 432.75C669.914 433.41 671.793 434.641 673.237 436.305C673.877 436.934 674.359 437.706 674.642 438.558C674.926 439.409 675.004 440.316 674.869 441.203Z" fill="#3F3D56"/>
<path opacity="0.1" d="M674.869 441.203C660.735 446.618 648.136 447.023 635.207 438.043C628.686 433.517 622.762 432.397 618.316 432.482C623.171 429.914 639.269 423.576 667.812 432.75C669.914 433.41 671.793 434.641 673.237 436.305C673.877 436.934 674.359 437.706 674.642 438.558C674.926 439.409 675.004 440.316 674.869 441.203Z" fill="black"/>
<path d="M657.148 438.043C659.911 438.043 662.152 437.354 662.152 436.504C662.152 435.654 659.911 434.964 657.148 434.964C654.384 434.964 652.143 435.654 652.143 436.504C652.143 437.354 654.384 438.043 657.148 438.043Z" fill="#F2F2F2"/>
<path opacity="0.1" d="M595.174 444.971V448.82H388.083V445.741L388.368 444.971H595.174Z" fill="black"/>
<path d="M713.519 248.585C711.885 246.951 690.916 220.54 687.376 216.183C683.564 211.827 681.93 212.644 679.479 212.916C677.028 213.188 650.613 217.817 647.618 218.089C644.623 218.634 642.716 219.723 644.623 222.446C646.256 224.896 663.685 249.402 667.497 255.12L598.056 271.729L543.048 179.425C540.87 176.158 540.325 175.068 535.424 175.341C530.522 175.613 492.125 178.88 489.402 178.88C486.679 179.153 483.683 180.242 486.407 186.777C489.13 193.311 532.7 286.977 533.79 289.7C534.879 292.423 538.147 296.779 545.499 295.145C553.124 293.24 579.267 286.432 593.699 282.62C601.324 296.235 616.574 324.008 619.569 328.092C623.382 333.537 626.105 332.448 631.824 330.815C636.453 329.453 703.171 305.492 706.166 304.131C709.162 302.769 711.068 301.953 708.889 298.957C707.255 296.779 689.827 273.091 680.568 260.838C686.832 259.204 709.434 253.214 711.885 252.397C714.608 251.58 715.153 250.219 713.519 248.585V248.585ZM587.436 274.452C586.619 274.724 547.678 283.982 545.772 284.527C543.593 285.071 543.593 284.799 543.593 283.982C543.048 283.165 497.299 188.41 496.482 187.321C495.938 186.232 495.938 185.143 496.482 185.143C497.027 185.143 533.245 181.876 534.334 181.876C535.696 181.876 535.424 182.148 535.968 182.965C535.968 182.965 586.891 270.912 587.708 272.274C588.798 273.635 588.253 274.18 587.436 274.452V274.452ZM696.907 294.873C697.452 295.962 698.269 296.507 696.09 297.052C694.184 297.868 630.462 319.379 629.1 319.923C627.739 320.468 626.922 320.74 625.288 318.29C623.654 315.839 602.958 280.17 602.958 280.17L670.765 262.472C672.399 261.927 672.943 261.655 674.033 263.288C675.122 265.194 696.363 294.056 696.907 294.873V294.873ZM701.264 246.951C699.63 247.224 674.85 253.486 674.85 253.486L654.426 225.713C653.881 224.896 653.337 224.08 654.698 223.807C656.06 223.535 679.207 219.451 680.296 219.178C681.385 218.906 682.202 218.634 683.564 220.54C684.925 222.174 702.354 244.501 703.171 245.318C703.988 246.135 702.898 246.679 701.264 246.951V246.951Z" fill="#FB503B"/>
<path d="M422.991 208.064C445.631 208.064 463.985 189.712 463.985 167.074C463.985 144.436 445.631 126.085 422.991 126.085C400.35 126.085 381.996 144.436 381.996 167.074C381.996 189.712 400.35 208.064 422.991 208.064Z" fill="#FFB9B9"/>
<path d="M392.784 187.569V252.289H459.67C459.67 252.289 451.04 198.356 455.355 182.176L392.784 187.569Z" fill="#FFB9B9"/>
<path d="M525.477 274.941C525.477 274.941 461.828 243.66 461.828 241.502C461.828 239.345 455.355 225.322 451.04 225.322C446.724 225.322 410.045 213.457 389.548 230.716L387.39 244.738L308.638 296.514L330.214 375.257C330.214 375.257 344.238 390.359 339.923 401.145C335.608 411.932 343.16 466.944 343.16 466.944L512.531 461.551V388.201C512.531 388.201 517.925 370.943 521.162 365.549C524.398 360.156 521.162 343.976 521.162 343.976L547.053 311.616C547.053 311.616 543.817 281.413 525.477 274.941Z" fill="#D0CDE1"/>
<path opacity="0.1" d="M311.335 322.942L316.19 296.515C316.19 296.515 288.141 418.404 291.377 432.427C294.614 446.45 318.347 468.023 321.584 469.102C324.82 470.18 355.026 376.336 355.026 376.336L311.335 322.942Z" fill="black"/>
<path d="M326.978 293.278L308.638 296.514C308.638 296.514 280.589 418.404 283.826 432.427C287.062 446.45 310.796 468.023 314.032 469.102C317.268 470.18 347.475 376.336 347.475 376.336L326.978 293.278Z" fill="#D0CDE1"/>
<path opacity="0.1" d="M531.41 329.414L540.58 311.616C540.58 311.616 553.526 433.505 544.895 445.371C536.265 457.236 502.126 461.676 502.126 461.676L501.743 373.1L531.41 329.414Z" fill="black"/>
<path d="M533.028 297.593L547.053 311.616C547.053 311.616 559.998 433.506 551.368 445.371C542.738 457.236 508.598 461.676 508.598 461.676L508.216 373.1L533.028 297.593Z" fill="#D0CDE1"/>
<path d="M323.741 483.124C323.741 483.124 292.456 471.259 287.062 493.911C281.668 516.563 300.008 617.958 300.008 617.958C300.008 617.958 311.874 694.543 319.426 696.701C326.978 698.858 360.42 699.937 365.814 690.229C371.208 680.521 349.632 581.283 349.632 581.283L474.773 579.126C474.773 579.126 467.222 665.419 462.906 672.97C458.591 680.521 458.591 706.409 462.906 706.409C467.222 706.409 514.689 704.251 517.925 697.779C521.162 691.307 539.501 545.687 539.501 545.687C539.501 545.687 554.604 494.99 537.344 498.226C520.083 501.462 323.741 483.124 323.741 483.124Z" fill="#3F3D56"/>
<path d="M508.216 693.465C508.216 693.465 519.004 685.914 524.398 693.465C529.792 701.015 531.95 709.645 508.216 722.589C484.482 735.533 466.143 732.297 466.143 730.14V698.858L508.216 693.465Z" fill="#2F2E41"/>
<path d="M321.584 690.229C321.584 690.229 310.796 682.678 305.402 690.229C300.008 697.779 297.85 706.409 321.584 719.353C345.317 732.297 363.657 729.061 363.657 726.904V695.622L321.584 690.229Z" fill="#2F2E41"/>
<path d="M423.257 115.39C419.173 115.249 415.097 115.829 411.216 117.106C408.207 118.316 405.332 119.837 402.639 121.644L384.54 132.897C383.004 133.562 381.698 134.667 380.789 136.073C379.88 137.479 379.408 139.122 379.431 140.796L377.17 157.731C376.599 162.005 376.073 166.575 377.986 170.439C379.583 173.664 382.629 175.871 385.133 178.456C389.141 182.61 391.838 187.85 392.89 193.525C394.184 200.596 393.355 209.11 398.952 213.623C401.982 216.066 406.112 216.528 409.998 216.755C420.624 217.376 431.285 216.965 441.832 215.53C443.509 215.405 445.144 214.946 446.642 214.183C448.545 213.057 449.742 211.071 450.862 209.165C454.903 202.285 459.069 194.966 459.025 186.987C459.003 183.04 457.993 178.801 459.889 175.338C460.89 173.866 461.978 172.455 463.145 171.11C465.491 167.813 465.948 163.576 466.331 159.547C467.552 146.677 466.275 136.883 456.789 127.817C447.934 119.355 435.334 115.468 423.257 115.39Z" fill="#2F2E41"/>
<path d="M322.557 610.558L286.553 793.558H304.554L339.059 613.559L322.557 610.558Z" fill="#2F2E41"/>
<path d="M438.071 625.559L460.574 835.558H475.575L462.073 619.558L438.071 625.559Z" fill="#2F2E41"/>
<path d="M499.578 619.558L531.082 759.059H546.083L516.08 616.558L499.578 619.558Z" fill="#2F2E41"/>
<path d="M379.564 619.558L375.063 730.559H387.065L396.066 619.558H379.564Z" fill="#2F2E41"/>
<path d="M297.054 591.058C297.054 591.058 273.051 430.558 340.559 426.058C408.067 421.558 504.079 426.058 504.079 426.058C504.079 426.058 559.585 421.558 543.083 591.058C543.083 591.058 558.085 640.558 423.069 636.058C288.053 631.558 297.054 591.058 297.054 591.058Z" fill="#80FFDB"/>
<path d="M912.138 656.601C912.138 684.589 895.497 694.361 874.97 694.361C854.443 694.361 837.803 684.589 837.803 656.601C837.803 628.613 874.97 593.007 874.97 593.007C874.97 593.007 912.138 628.613 912.138 656.601Z" fill="#80FFDB"/>
<path d="M873.997 666.657L889.838 637.679L874.056 662.982L874.228 652.45L885.146 631.484L874.273 649.662L874.58 630.72L886.272 614.029L874.629 627.742L874.822 593.008L873.665 637.019L861.826 618.9L873.521 640.733L872.414 661.889L872.381 661.327L858.678 642.183L872.339 663.311L872.201 665.957L872.176 665.996L872.188 666.214L869.378 694.445H873.132L873.583 692.164L887.211 671.087L873.616 690.08L873.997 666.657Z" fill="#3F3D56"/>
<path d="M898.708 755.074H854.397L842.945 690.358H907.669L898.708 755.074Z" fill="#2F2E41"/>
<path d="M247.596 317.549H155.417V425.607H247.596V317.549Z" fill="#3F3D56"/>
<path d="M233.292 334.317H169.721V408.84H233.292V334.317Z" fill="#F2F2F2"/>
<path d="M207.878 350.144L201.422 361.323L194.966 350.144H173.47L201.422 398.554L229.374 350.144H207.878Z" fill="#4DBA87"/>
<path d="M207.878 350.144L201.422 361.323L194.966 350.144H184.651L201.422 379.188L218.193 350.144H207.878Z" fill="#435466"/>
</svg>
